<svg xmlns="http://www.w3.org/2000/svg" width="1675" height="1735" viewBox="0 0 1675 1735" fill="none"><path d="M1674.11 554.931L832.845 1734.85L-5.49917e-05 702.538L500.898 -0.000459152L1674.08 554.971L1674.11 554.931ZM831.932 1715.85L1656.56 559.262L504.986 14.5507L14.4615 702.54L831.932 1715.85Z" fill="#FF6530"></path><path d="M1574.21 577.177L825.29 1627.58L81.66 705.782L526.666 81.6348L1574.21 577.177ZM824.245 1605.62L1553.9 582.24L531.379 98.5454L98.3899 705.838L824.273 1605.58L824.245 1605.62Z" fill="#FF6530"></path><path d="M817.774 1520.35L163.292 709.066L552.435 163.27L1474.41 599.374L817.774 1520.35ZM816.586 1495.35L1451.26 605.179L557.772 182.54L182.318 709.136L816.586 1495.35Z" fill="#FF6530"></path><path d="M810.258 1413.11L244.963 712.381L578.215 244.976L1374.56 621.65L810.258 1413.11ZM808.899 1385.12L1348.6 628.157L584.165 266.535L266.246 712.433L808.928 1385.08L808.899 1385.12Z" fill="#FF6530"></path><path d="M802.742 1305.88L326.595 715.665L603.955 326.651L1274.7 643.927L802.742 1305.88ZM801.241 1274.84L1245.96 651.096L610.558 350.529L350.175 715.731L801.241 1274.84Z" fill="#FF6530"></path><path d="M1174.78 666.212L795.158 1198.65L408.198 718.988L629.667 408.366L1174.78 666.212ZM1143.26 674.042L636.922 434.563L434.075 719.069L793.486 1164.62L1143.26 674.042Z" fill="#FF6530"></path><path d="M1074.92 688.489L787.642 1091.42L489.83 722.272L655.407 490.041L1074.92 688.489ZM785.827 1054.35L1040.63 696.981L663.343 518.518L518.031 722.327L785.856 1054.31L785.827 1054.35Z" fill="#FF6530"></path><path d="M975.066 710.765L780.126 984.18L571.501 725.588L681.187 571.747L975.066 710.765ZM937.992 719.919L689.736 602.513L601.931 725.665L778.141 944.121L937.992 719.919Z" fill="#FF6530"></path><path d="M875.199 732.971L772.57 876.913L653.093 728.84L706.887 653.391L875.17 733.01L875.199 732.971ZM770.482 833.85L835.33 742.897L716.129 686.508L685.859 728.963L770.482 833.85Z" fill="#FF6530"></path></svg>