<?xml version="1.0" encoding="UTF-8"?>
<svg id="Layer_1" xmlns="http://www.w3.org/2000/svg" xmlns:xlink="http://www.w3.org/1999/xlink" version="1.1" viewBox="0 0 1234.3 463.1">
  <!-- Generator: Adobe Illustrator 30.2.1, SVG Export Plug-In . SVG Version: 2.1.1 Build 1)  -->
  <defs>
    <style>
      .st0 {
        fill: none;
      }

      .st1 {
        fill: #f26636;
      }

      .st2 {
        fill: #010101;
      }

      .st3 {
        clip-path: url(#clippath);
      }
    </style>
    <clipPath id="clippath">
      <rect class="st0" x="-118.4" y="-167.8" width="1441" height="751.6"/>
    </clipPath>
  </defs>
  <polygon class="st1" points="723.9 463.1 723.9 382.3 754.1 382.3 769.6 455.8 769.9 455.8 785.1 382.3 815.1 382.3 815.1 463.1 797.1 463.1 798.4 389.8 798.1 389.8 782.2 463.1 756.9 463.1 741.2 389.8 740.9 389.8 741.9 463.1 723.9 463.1"/>
  <g class="st3">
    <path class="st1" d="M874.3,465.1c-11.8,0-20.7-3.2-26.8-9.5-6.1-6.4-9.1-15.3-9.1-26.9v-46.4h18.5v46.2c0,4.2.5,7.6,1.7,10.3,1.1,2.6,2.5,4.7,4.2,6.1,1.7,1.4,3.6,2.4,5.6,2.9,2,.5,4,.8,5.9.8,2.9,0,5.6-.5,8.3-1.4,2.7-1,4.9-2.9,6.6-5.8,1.7-2.9,2.6-7.2,2.6-12.8v-46.2h18.5v46.4c0,11.8-3,20.8-9,27.1-6,6.3-15,9.4-27.1,9.4M878.1,375.7h-7.7v-2.2l6-14.2h14.5v2.9l-12.8,13.5Z"/>
    <path class="st1" d="M965.2,464.7c-4.5,0-8.9-.5-13.3-1.6-4.4-1.1-8.3-2.7-11.7-5-3.4-2.3-6.2-5.3-8.3-9-2.1-3.7-3.2-8.1-3.2-13.1h17.4c0,.4,0,1.1.3,2.1.2,1,.7,2.1,1.5,3.4.8,1.2,1.9,2.4,3.4,3.6,1.4,1.1,3.4,2.1,5.9,2.9,2.5.8,5.6,1.1,9.3,1.1s4-.2,5.8-.6c1.8-.4,3.3-.9,4.7-1.6,1.3-.7,2.4-1.5,3.1-2.6.7-1.1,1.1-2.2,1.1-3.4,0-2.4-.9-4.3-2.8-5.7-1.9-1.4-4.3-2.5-7.4-3.3-3.1-.8-6.4-1.6-10.1-2.4-3.7-.8-7.3-1.8-10.9-2.9-3.6-1.1-6.9-2.7-9.8-4.6-3-1.9-5.3-4.4-6.9-7.5-1.6-3.1-2.3-6.9-2.2-11.5.4-4.6,2-8.5,4.8-11.8,2.8-3.3,6.8-5.8,11.9-7.6,5.1-1.8,11.2-2.7,18.1-2.7s11.3,1,16.4,3.1c5.1,2.1,9.2,5.2,12.3,9.4,3.2,4.2,4.7,9.5,4.7,15.9h-16.8c0-2.6-.6-4.7-1.9-6.2-1.2-1.6-2.8-2.8-4.8-3.7-2-.9-4-1.5-6.2-1.8-2.2-.3-4-.5-5.7-.5-4.2,0-7.7.6-10.4,1.9-2.7,1.2-4.1,3.3-4.1,6.2s1,4.4,2.9,5.8c1.9,1.4,4.4,2.5,7.5,3.4,3.1.9,6.5,1.6,10.2,2.4,3.7.7,7.4,1.6,11.1,2.7,3.7,1.1,7,2.6,10,4.4,3,1.8,5.3,4.2,7,7.2,1.7,3,2.4,6.9,2,11.7-.2,4.6-1.8,8.5-4.9,11.8-3.1,3.3-7.1,5.8-12.3,7.5-5.1,1.8-11.1,2.7-17.9,2.7"/>
    <polygon class="st1" points="1040.9 397.1 1040.9 448.3 1040.9 463.1 1023.7 463.1 1023.7 448.3 1023.7 397.1 1023.7 382.3 1040.9 382.3 1040.9 397.1"/>
    <path class="st1" d="M1101.8,464.5c-7.6,0-14.4-1.5-20.7-4.6-6.2-3.1-11.2-7.7-14.9-13.9-3.7-6.2-5.5-13.8-5.4-22.9,0-9,1.9-16.6,5.5-23,3.6-6.3,8.5-11.1,14.7-14.4,6.2-3.3,13.2-5,21.1-5s14.4,1.4,19.8,4.2c5.5,2.8,9.7,6.5,12.8,11.2,3.1,4.7,5.1,9.9,6.1,15.5h-17.9c-.6-4-2-7.1-4.3-9.1-2.3-2.1-5-3.5-8-4.2-3-.8-5.9-1.2-8.5-1.2-7.9,0-14,2.2-18.1,6.5-4.1,4.3-6.2,10.4-6.2,18.2s2,14.9,6,19.5c4,4.6,10,6.9,18.1,6.9s5.8-.4,8.8-1.3c3-.9,5.7-2.4,8-4.7,2.3-2.2,3.8-5.4,4.4-9.4h17.9c-1,5.7-3,11-6.2,15.9-3.2,4.8-7.5,8.7-13,11.5-5.5,2.8-12.3,4.2-20.3,4.2"/>
    <path class="st1" d="M1208.4,382.3h-28.4l-24.5,80.8h18.7l6-21.5h29.2l6,21.5h18.5l-25.4-80.8ZM1183.9,428.2l10.8-38.7,10.9,38.7h-21.7Z"/>
    <path class="st2" d="M869.4,224.2c9.9,0,18-1.5,24.4-4.5,6.4-3,11.3-7,14.8-12.1,3.5-5.1,5.9-10.9,7.2-17.6,1.3-6.6,2-13.5,2-20.5v-7h51.6v7c0,32.6-8.5,57.6-25.6,75.2-17.1,17.6-41.9,26.4-74.4,26.4s-56-9.5-74.2-28.5c-18.2-19-27.3-46.7-27.3-83.2v-47.1c0-17.4,2.3-33.1,7-47.1,4.7-13.9,11.5-25.6,20.3-35.2,8.9-9.5,19.5-16.8,32-21.9,12.5-5.1,26.6-7.6,42.2-7.6s30.5,2.3,43,7c12.5,4.7,23,11.5,31.4,20.3,8.5,8.9,14.8,19.5,19.1,32,4.3,12.5,6.4,26.6,6.4,42.2v7h-51.6v-7c0-6.5-.8-13-2.3-19.5-1.6-6.5-4.2-12.4-7.8-17.6-3.6-5.2-8.6-9.4-14.8-12.7-6.3-3.3-14.1-4.9-23.4-4.9s-16,1.6-22.3,4.9c-6.3,3.3-11.5,7.7-15.6,13.3-4.2,5.6-7.2,12.1-9.2,19.5-2,7.4-2.9,15.2-2.9,23.2v54.9c0,8.9.9,17,2.7,24.4,1.8,7.4,4.7,13.9,8.6,19.3,3.9,5.5,9,9.7,15.4,12.7,6.4,3,14.1,4.5,23.2,4.5"/>
    <path class="st2" d="M392.8,12l67.6,248.4h-45.7S347.2,12,347.2,12h45.6ZM347.2,260.3h-51.7V12h51.7v248.4ZM460.4,12v248.4h51.7s0-248.4,0-248.4h-51.7Z"/>
    <polygon class="st2" points="250.1 216.7 250.1 165.1 108.9 197.1 108.9 132.8 250.1 165.1 250.1 113.6 0 53.9 0 108.3 59.2 121.7 59.2 208.5 0 221.9 0 276.3 250.1 216.7"/>
    <polygon class="st2" points="699.9 70.6 648.4 70.6 680.3 211.8 616 211.8 648.4 70.6 596.8 70.6 537.2 320.6 591.6 320.6 605 261.5 691.8 261.5 705.2 320.6 759.6 320.6 699.9 70.6"/>
    <polygon class="st2" points="1144 70.6 1092.5 70.6 1124.4 211.8 1060.1 211.8 1092.5 70.6 1040.9 70.6 981.3 320.6 1035.7 320.6 1049.1 261.5 1135.9 261.5 1149.3 320.6 1203.7 320.6 1144 70.6"/>
    <rect class="st1" x="1011.2" y=".5" width="162.5" height="44.9"/>
  </g>
</svg>