<svg width="48" height="48" viewBox="0 0 48 48" fill="none" xmlns="http://www.w3.org/2000/svg">
<path d="M7 22C6.20435 22 5.44129 21.6839 4.87868 21.1213C4.31607 20.5587 4 19.7957 4 19C4 18.2044 4.31607 17.4413 4.87868 16.8787C5.44129 16.3161 6.20435 16 7 16H8.504C9.39231 12.5658 11.3963 9.52391 14.2011 7.35227C17.006 5.18063 20.4527 4.00226 24 4.00226C27.5473 4.00226 30.994 5.18063 33.7989 7.35227C36.6037 9.52391 38.6077 12.5658 39.496 16H40C40.7956 16 41.5587 16.3161 42.1213 16.8787C42.6839 17.4413 43 18.2044 43 19C43 19.7957 42.6839 20.5587 42.1213 21.1213C41.5587 21.6839 40.7956 22 40 22H39.876C39.3879 25.8662 37.5058 29.4215 34.5829 31.9987C31.6599 34.5759 27.8969 35.9979 24 35.9979C20.1031 35.9979 16.3401 34.5759 13.4171 31.9987C10.4942 29.4215 8.61206 25.8662 8.124 22H7Z" stroke="white" stroke-width="2" stroke-linejoin="round"/>
<path d="M9 16H12C15.1826 16 18.2348 14.7357 20.4853 12.4853C22.7357 10.2348 24 7.1826 24 4C24 7.1826 25.2643 10.2348 27.5147 12.4853C29.7652 14.7357 32.8174 16 36 16H39" stroke="white" stroke-width="2" stroke-linecap="round" stroke-linejoin="round"/>
<path d="M24 30C24.5304 30 25.0391 29.7893 25.4142 29.4142C25.7893 29.0391 26 28.5304 26 28H22C22 28.5304 22.2107 29.0391 22.5858 29.4142C22.9609 29.7893 23.4696 30 24 30Z" stroke="white" stroke-width="2" stroke-linejoin="round"/>
<path d="M36 44C36 40.416 34.428 37.2 31.938 35M12 44C12 40.416 13.572 37.2 16.062 35" stroke="white" stroke-width="2" stroke-linecap="round"/>
<path d="M18 20V20.02M30 20V20.02" stroke="white" stroke-width="2" stroke-linecap="round"/>
</svg>
