<svg width="27" height="27" viewBox="0 0 27 27" fill="none" xmlns="http://www.w3.org/2000/svg">
<path d="M19.7178 4C21.6636 4.00014 23.246 5.58292 23.2461 7.52832V19.7178C23.246 21.6636 21.6632 23.246 19.7178 23.2461H7.52832C5.58284 23.2461 4.00009 21.6632 4 19.7178V7.52832C4.00009 5.58286 5.58284 4.00004 7.52832 4H19.7178ZM13.623 7.28809C10.1298 7.28809 7.28726 10.1298 7.28711 13.623C7.28711 17.1169 10.1297 19.959 13.623 19.959C17.1163 19.9589 19.959 17.1163 19.959 13.623C19.9588 10.1299 17.1166 7.28822 13.623 7.28809ZM13.6592 10C15.6761 10.0002 17.3174 11.6422 17.3174 13.6582C17.3172 15.6754 15.6764 17.3171 13.6592 17.3174C11.6427 17.3174 10.0002 15.6756 10 13.6582C10 11.6416 11.6425 10 13.6592 10ZM20.1621 5.59961C19.3354 5.59984 18.6631 6.2723 18.6631 7.09863C18.6631 7.92501 19.3353 8.59743 20.1621 8.59766C20.9886 8.59766 21.6611 7.92515 21.6611 7.09863C21.6611 6.27216 20.9886 5.59961 20.1621 5.59961Z" fill="black"/>
</svg>
