<svg width="27" height="27" viewBox="0 0 27 27" fill="none" xmlns="http://www.w3.org/2000/svg">
<path d="M15.087 19.4071C13.6003 19.2941 12.9756 18.5696 11.8097 17.8741C11.1689 21.1781 10.3857 24.3454 8.06608 26C7.3492 21.0062 9.11705 17.2553 9.93805 13.274C8.53863 10.959 10.1063 6.29939 13.058 7.44759C16.6908 8.85932 9.91281 16.0555 14.463 16.9543C19.2134 17.8927 21.1527 8.85416 18.2066 5.91424C13.9502 1.66972 5.81692 5.81778 6.81705 11.894C7.06069 13.3794 8.62277 13.8304 7.44104 15.8801C4.71687 15.2873 3.90428 13.1758 4.00875 10.361C4.17737 5.75336 8.22173 2.52717 12.2784 2.0807C17.4087 1.51642 22.224 3.93202 22.8886 8.67433C23.6364 14.0267 20.5725 19.8232 15.087 19.4071Z" fill="black"/>
</svg>
