<svg width="27" height="27" viewBox="0 0 27 27" fill="none" xmlns="http://www.w3.org/2000/svg">
<path d="M25.8238 6.29205C24.9475 6.68062 24.0049 6.94344 23.0163 7.06081C24.0257 6.45609 24.8003 5.49924 25.1659 4.35722C24.2214 4.91748 23.1749 5.32391 22.062 5.54298C21.1704 4.59343 19.9001 4 18.4935 4C15.7946 4 13.6057 6.1889 13.6057 8.88775C13.6057 9.27085 13.6491 9.64375 13.7329 10.0017C9.6708 9.79794 6.06905 7.85217 3.65817 4.89415C3.23752 5.61588 2.99621 6.45608 2.99621 7.35169C2.99621 9.04704 3.85974 10.5437 5.17053 11.42C4.3697 11.3949 3.61552 11.1751 2.95685 10.808C2.95648 10.8288 2.95648 10.8496 2.95648 10.87C2.95648 13.2382 4.64199 15.2135 6.87754 15.6622C6.46783 15.7745 6.03515 15.8339 5.59008 15.8339C5.27442 15.8339 4.96859 15.8036 4.67042 15.7468C5.29228 17.6882 7.09698 19.1014 9.2363 19.1411C7.56319 20.4523 5.45594 21.2334 3.16535 21.2334C2.77167 21.2334 2.38164 21.2105 2 21.1649C4.16192 22.5522 6.73174 23.3611 9.49182 23.3611C18.4822 23.3611 23.3987 15.9134 23.3987 9.45384C23.3987 9.24205 23.394 9.031 23.3845 8.82177C24.3402 8.13284 25.1688 7.27223 25.8238 6.29205Z" fill="black"/>
</svg>
