<svg width="27" height="27" viewBox="0 0 27 27" fill="none" xmlns="http://www.w3.org/2000/svg">
<path d="M21.4312 5.52375C20.3997 4.48212 19.1711 3.65621 17.8172 3.09416C16.4632 2.5321 15.011 2.24514 13.545 2.25C7.40249 2.25 2.39624 7.25625 2.39624 13.3988C2.39624 15.3675 2.91374 17.28 3.88124 18.9675L2.30624 24.75L8.21249 23.1975C9.84374 24.0863 11.6775 24.5587 13.545 24.5587C19.6875 24.5587 24.6937 19.5525 24.6937 13.41C24.6937 10.4288 23.535 7.6275 21.4312 5.52375ZM13.545 22.6687C11.88 22.6687 10.2487 22.2188 8.81999 21.375L8.48249 21.1725L4.97249 22.095L5.90624 18.675L5.68124 18.3263C4.75599 16.8492 4.26478 15.1417 4.26374 13.3988C4.26374 8.29125 8.42624 4.12875 13.5337 4.12875C16.0087 4.12875 18.3375 5.09625 20.0812 6.85125C20.9448 7.7106 21.6292 8.73286 22.0946 9.85874C22.56 10.9846 22.7972 12.1917 22.7925 13.41C22.815 18.5175 18.6525 22.6687 13.545 22.6687ZM18.63 15.7387C18.3487 15.6038 16.9762 14.9288 16.7287 14.8275C16.47 14.7375 16.29 14.6925 16.0987 14.9625C15.9075 15.2438 15.3787 15.8738 15.2212 16.0538C15.0637 16.245 14.895 16.2675 14.6137 16.1213C14.3325 15.9862 13.4325 15.6825 12.375 14.7375C11.5425 13.995 10.9912 13.0837 10.8225 12.8025C10.665 12.5212 10.8 12.375 10.9462 12.2288C11.07 12.105 11.2275 11.9025 11.3625 11.745C11.4975 11.5875 11.5537 11.4637 11.6437 11.2837C11.7337 11.0925 11.6887 10.935 11.6212 10.8C11.5537 10.665 10.9912 9.2925 10.7662 8.73C10.5412 8.19 10.305 8.2575 10.1362 8.24625H9.59624C9.40499 8.24625 9.11249 8.31375 8.85374 8.595C8.60624 8.87625 7.88624 9.55125 7.88624 10.9237C7.88624 12.2962 8.88749 13.6238 9.02249 13.8038C9.15749 13.995 10.9912 16.8075 13.7812 18.0113C14.445 18.3038 14.9625 18.4725 15.3675 18.5963C16.0312 18.81 16.6387 18.7762 17.1225 18.7087C17.6625 18.63 18.7762 18.0337 19.0012 17.3813C19.2375 16.7288 19.2375 16.1775 19.1587 16.0538C19.08 15.93 18.9112 15.8737 18.63 15.7387Z" fill="black"/>
</svg>
