<svg width="48" height="48" viewBox="0 0 48 48" fill="none" xmlns="http://www.w3.org/2000/svg">
<path d="M20 32C21 32.6 22.4 33 24 33C25.6 33 27 32.6 28 32M30 24H30.02" stroke="white" stroke-width="2" stroke-linecap="round" stroke-linejoin="round"/>
<path d="M38.76 13.626C40.1622 15.6648 41.129 17.9708 41.6 20.4C42.2763 20.7275 42.8466 21.239 43.2457 21.8756C43.6448 22.5123 43.8564 23.2486 43.8564 24C43.8564 24.7514 43.6448 25.4877 43.2457 26.1244C42.8466 26.761 42.2763 27.2725 41.6 27.6C40.7366 31.627 38.5183 35.2361 35.3154 37.8251C32.1124 40.4141 28.1185 41.8264 24 41.8264C19.8815 41.8264 15.8876 40.4141 12.6846 37.8251C9.48167 35.2361 7.26341 31.627 6.4 27.6C5.72372 27.2725 5.15337 26.761 4.75429 26.1244C4.35522 25.4877 4.14356 24.7514 4.14356 24C4.14356 23.2486 4.35522 22.5123 4.75429 21.8756C5.15337 21.239 5.72372 20.7275 6.4 20.4C7.22853 16.341 9.43179 12.692 12.6381 10.0687C15.8443 7.44542 19.8573 6.00836 24 6C28 6 31 8.2 31 11C31 13.8 29.2 16 27 16C25.4 16 24 15.2 24 14M18 24H18.02" stroke="white" stroke-width="2" stroke-linecap="round" stroke-linejoin="round"/>
</svg>
