<svg width="48" height="48" viewBox="0 0 48 48" fill="none" xmlns="http://www.w3.org/2000/svg">
<path d="M16.1533 35.3377L23.9998 30.8056L31.8463 35.3973L29.7913 26.8103L36.7037 21.0856L27.6117 20.3104L23.9998 12.2005L20.3879 20.2508L11.2959 21.026L18.2083 26.8103L16.1533 35.3377ZM23.9998 33.6131L14.9576 38.8416C14.6919 38.9673 14.4453 39.0181 14.2178 38.9943C13.992 38.9688 13.7719 38.8941 13.5577 38.7701C13.3418 38.6429 13.1791 38.4632 13.0695 38.231C12.9599 37.9988 12.9499 37.7452 13.0396 37.4701L15.4459 27.6666L7.48725 21.0594C7.26307 20.8845 7.11527 20.6754 7.04386 20.4321C6.97246 20.1888 6.98823 19.9558 7.09119 19.7332C7.19415 19.5106 7.33115 19.3277 7.5022 19.1846C7.67491 19.0462 7.9074 18.9524 8.19967 18.9031L18.7015 18.0253L22.7967 8.74182C22.9096 8.47944 23.0723 8.29021 23.2849 8.17413C23.4974 8.05804 23.7357 8 23.9998 8C24.2638 8 24.503 8.05804 24.7172 8.17413C24.9314 8.29021 25.0933 8.47944 25.2029 8.74182L29.298 18.0253L39.7974 18.9031C40.0914 18.9508 40.3247 19.0454 40.4974 19.187C40.6701 19.3269 40.8079 19.509 40.9109 19.7332C41.0122 19.9558 41.0271 20.1888 40.9557 20.4321C40.8843 20.6754 40.7365 20.8845 40.5123 21.0594L32.5537 27.6666L34.96 37.4701C35.053 37.742 35.0438 37.9949 34.9326 38.2286C34.8213 38.4624 34.6578 38.6421 34.4419 38.7677C34.2293 38.8949 34.0093 38.9704 33.7818 38.9943C33.5559 39.0181 33.3101 38.9673 33.0444 38.8416L23.9998 33.6131Z" fill="white"/>
</svg>
