<svg width="48" height="48" viewBox="0 0 48 48" fill="none" xmlns="http://www.w3.org/2000/svg">
<path d="M46.2806 9.21937L38.7806 1.71936C38.7109 1.64968 38.6282 1.59441 38.5372 1.55669C38.4461 1.51898 38.3485 1.49957 38.25 1.49957C38.1514 1.49957 38.0539 1.51898 37.9628 1.55669C37.8718 1.59441 37.7891 1.64968 37.7194 1.71936C37.6497 1.78905 37.5944 1.87177 37.5567 1.96282C37.519 2.05386 37.4996 2.15144 37.4996 2.24999C37.4996 2.34854 37.519 2.44612 37.5567 2.53716C37.5944 2.62821 37.6497 2.71093 37.7194 2.78061L38.6887 3.74999L26.4844 15.9562C22.3762 13.605 17.6925 13.6481 14.9212 16.4194C14.2283 17.1138 13.6857 17.9436 13.3275 18.8569C13.1523 19.2669 12.8615 19.617 12.4905 19.8644C12.1196 20.1118 11.6846 20.2458 11.2387 20.25C8.69812 20.3362 6.49687 21.24 4.86375 22.8637C2.77875 24.9637 1.89375 27.9956 2.38125 31.4081C2.8575 34.74 4.59375 38.0494 7.27125 40.7287C9.94875 43.4081 13.26 45.1425 16.5919 45.6187C17.1874 45.7052 17.7883 45.7491 18.39 45.75C21.0619 45.75 23.4131 44.8462 25.14 43.125C26.7637 41.4994 27.6675 39.2981 27.7537 36.75C27.7583 36.3037 27.8928 35.8684 28.1409 35.4975C28.389 35.1265 28.7399 34.8359 29.1506 34.6612C30.0639 34.303 30.8937 33.7605 31.5881 33.0675C34.3594 30.2962 34.4006 25.6125 32.0512 21.5044L44.25 9.31124L45.2194 10.2806C45.3601 10.4213 45.551 10.5004 45.75 10.5004C45.949 10.5004 46.1399 10.4213 46.2806 10.2806C46.4213 10.1399 46.5004 9.94901 46.5004 9.74999C46.5004 9.55097 46.4213 9.3601 46.2806 9.21937ZM30.5194 32.0175C29.9699 32.5668 29.3122 32.9959 28.5881 33.2775C27.907 33.5608 27.3232 34.0363 26.908 34.646C26.4927 35.2557 26.2641 35.9731 26.25 36.7106C26.1787 38.865 25.4269 40.7175 24.075 42.0675C22.3237 43.8187 19.7437 44.5537 16.8094 44.13C13.7962 43.7006 10.7887 42.1144 8.33812 39.6637C5.8875 37.2131 4.30125 34.2056 3.87187 31.1925C3.45187 28.2581 4.18687 25.6781 5.93437 23.9269C7.28437 22.575 9.13687 21.8231 11.2912 21.7519C12.0294 21.7373 12.7473 21.5078 13.357 21.0915C13.9668 20.6753 14.442 20.0903 14.7244 19.4081C15.006 18.684 15.4351 18.0264 15.9844 17.4769C18.1969 15.2644 21.9544 15.2269 25.3856 17.0512L20.6812 21.7556C19.6727 21.8189 18.7039 22.1719 17.8911 22.7722C17.0782 23.3726 16.4559 24.1947 16.0988 25.14C15.7417 26.0853 15.665 27.1136 15.8779 28.1014C16.0908 29.0892 16.5843 29.9946 17.299 30.7089C18.0138 31.4232 18.9195 31.916 19.9075 32.1282C20.8954 32.3404 21.9236 32.263 22.8687 31.9053C23.8137 31.5476 24.6355 30.9247 25.2353 30.1115C25.835 29.2982 26.1874 28.3292 26.25 27.3206L30.9375 22.6162C32.7769 26.0475 32.7319 29.8125 30.5194 32.0175ZM21 23.25C21.9946 23.25 22.9484 23.6451 23.6516 24.3483C24.3549 25.0516 24.75 26.0054 24.75 27C24.75 27.7417 24.5301 28.4667 24.118 29.0834C23.7059 29.7001 23.1203 30.1807 22.4351 30.4645C21.7498 30.7484 20.9958 30.8226 20.2684 30.6779C19.541 30.5332 18.8728 30.1761 18.3483 29.6516C17.8239 29.1272 17.4667 28.459 17.3221 27.7316C17.1774 27.0042 17.2516 26.2502 17.5354 25.5649C17.8193 24.8797 18.2999 24.294 18.9166 23.882C19.5333 23.4699 20.2583 23.25 21 23.25ZM26.0081 25.4306C25.7539 24.623 25.3086 23.8888 24.7099 23.2901C24.1112 22.6914 23.3769 22.2461 22.5694 21.9919L26.6944 17.8669C28.0337 18.8036 29.1982 19.9682 30.135 21.3075L26.0081 25.4306ZM29.625 18.375C29.0497 17.7986 28.4289 17.2694 27.7687 16.7925L33 11.5594L36.4387 15L31.2131 20.2256C30.7342 19.5672 30.2031 18.9483 29.625 18.375ZM37.5 13.9444L34.0612 10.5L39.75 4.81124L43.1887 8.24999L37.5 13.9444ZM17.0325 36.9675C17.1022 37.0372 17.1575 37.1199 17.1952 37.2109C17.2329 37.302 17.2523 37.3996 17.2523 37.4981C17.2523 37.5967 17.2329 37.6942 17.1952 37.7853C17.1575 37.8763 17.1022 37.9591 17.0325 38.0287C16.9628 38.0984 16.8801 38.1537 16.789 38.1914C16.698 38.2291 16.6004 38.2485 16.5019 38.2485C16.4033 38.2485 16.3057 38.2291 16.2147 38.1914C16.1237 38.1537 16.0409 38.0984 15.9712 38.0287L9.97125 32.0287C9.83052 31.888 9.75145 31.6971 9.75145 31.4981C9.75145 31.2991 9.83051 31.1082 9.97125 30.9675C10.112 30.8268 10.3028 30.7477 10.5019 30.7477C10.7009 30.7477 10.8918 30.8268 11.0325 30.9675L17.0325 36.9675Z" fill="white"/>
</svg>
