<svg width="48" height="48" viewBox="0 0 48 48" fill="none" xmlns="http://www.w3.org/2000/svg">
<path d="M32.618 18.2677L32.29 19.0035C32.2387 19.1233 32.1522 19.2257 32.0414 19.2977C31.9306 19.3697 31.8004 19.4081 31.6673 19.4081C31.5341 19.4081 31.404 19.3697 31.2931 19.2977C31.1823 19.2257 31.0959 19.1233 31.0446 19.0035L30.7166 18.2677C30.1399 16.9661 29.0837 15.9224 27.7565 15.3427L26.7445 14.9021C26.6217 14.847 26.5177 14.7588 26.4448 14.6478C26.3719 14.5369 26.3331 14.4079 26.3331 14.2761C26.3331 14.1443 26.3719 14.0153 26.4448 13.9044C26.5177 13.7935 26.6217 13.7052 26.7445 13.6502L27.7005 13.2355C29.0611 12.6393 30.1353 11.557 30.7019 10.2117L31.0393 9.4174C31.0888 9.29436 31.1752 9.18873 31.2873 9.11428C31.3993 9.03982 31.5317 9 31.6673 9C31.8029 9 31.9353 9.03982 32.0473 9.11428C32.1593 9.18873 32.2458 9.29436 32.2953 9.4174L32.6326 10.2104C33.1987 11.556 34.2724 12.6387 35.6327 13.2355L36.5901 13.6515C36.7125 13.7067 36.8161 13.7949 36.8888 13.9057C36.9614 14.0165 37 14.1453 37 14.2768C37 14.4083 36.9614 14.537 36.8888 14.6478C36.8161 14.7586 36.7125 14.8468 36.5901 14.9021L35.5767 15.3414C34.2498 15.9217 33.1941 16.9658 32.618 18.2677ZM17.0002 11.6014H23.6671V14.2014H19.667V29.8012C19.6667 30.9459 19.2791 32.0584 18.5642 32.9664C17.8493 33.8744 16.8471 34.527 15.713 34.823C14.5789 35.1191 13.3764 35.0421 12.2918 34.6039C11.2072 34.1657 10.3012 33.3909 9.71426 32.3995C9.12736 31.4082 8.89236 30.2557 9.04569 29.1209C9.19903 27.9861 9.73215 26.9323 10.5624 26.1229C11.3926 25.3136 12.4735 24.7939 13.6375 24.6446C14.8015 24.4952 15.9835 24.7244 17.0002 25.2968V11.6014ZM31.6673 25.2968V22.0013H34.334V29.8012C34.3338 30.9459 33.9461 32.0584 33.2312 32.9664C32.5164 33.8744 31.5142 34.527 30.3801 34.823C29.246 35.1191 28.0434 35.0421 26.9588 34.6039C25.8742 34.1657 24.9682 33.3909 24.3813 32.3995C23.7944 31.4082 23.5594 30.2557 23.7128 29.1209C23.8661 27.9861 24.3992 26.9323 25.2294 26.1229C26.0596 25.3136 27.1405 24.7939 28.3045 24.6446C29.4685 24.4952 30.6505 24.7244 31.6673 25.2968ZM14.3335 32.4012C15.0407 32.4012 15.719 32.1273 16.2192 31.6397C16.7193 31.1521 17.0002 30.4908 17.0002 29.8012C17.0002 29.1117 16.7193 28.4503 16.2192 27.9628C15.719 27.4752 15.0407 27.2012 14.3335 27.2012C13.6262 27.2012 12.9479 27.4752 12.4478 27.9628C11.9477 28.4503 11.6667 29.1117 11.6667 29.8012C11.6667 30.4908 11.9477 31.1521 12.4478 31.6397C12.9479 32.1273 13.6262 32.4012 14.3335 32.4012ZM29.0005 32.4012C29.7078 32.4012 30.3861 32.1273 30.8862 31.6397C31.3863 31.1521 31.6673 30.4908 31.6673 29.8012C31.6673 29.1117 31.3863 28.4503 30.8862 27.9628C30.3861 27.4752 29.7078 27.2012 29.0005 27.2012C28.2933 27.2012 27.615 27.4752 27.1149 27.9628C26.6148 28.4503 26.3338 29.1117 26.3338 29.8012C26.3338 30.4908 26.6148 31.1521 27.1149 31.6397C27.615 32.1273 28.2933 32.4012 29.0005 32.4012Z" fill="white"/>
</svg>
